<svg xmlns="http://www.w3.org/2000/svg" width="150" height="50" viewBox="0,0,150,50"><path d="M20 43 C59 47,83 14,135 5" stroke="#333" fill="none"/><path d="M17 19 C63 31,62 7,129 48" stroke="#888" fill="none"/><path fill="#222" d="M32.43 40.93L32.46 40.95L32.39 40.88Q31.19 39.30 29.89 36.22L29.85 36.18L27.78 31.10L27.79 31.11Q26.16 35.08 25.55 36.37L25.60 36.42L25.57 36.38Q24.06 39.26 22.46 41.16L22.41 41.11L22.38 41.08Q22.06 41.14 21.30 41.25L21.34 41.29L21.37 41.32Q21.26 33.79 15.43 27.85L15.52 27.93L15.53 27.95Q13.85 26.19 11.83 24.71L11.76 24.64L11.79 24.66Q13.68 25.26 15.55 25.57L15.54 25.56L15.38 25.40Q21.56 30.48 23.01 36.72L22.98 36.69L23.00 36.71Q23.83 34.80 25.01 31.61L25.08 31.67L25.03 31.62Q26.43 27.92 27.00 26.63L26.91 26.53L28.44 26.65L28.37 26.59Q29.30 28.35 30.48 31.63L30.42 31.57L30.34 31.49Q31.78 35.25 32.43 36.66L32.46 36.69L32.47 36.70Q34.13 30.25 39.61 25.68L39.69 25.76L39.64 25.71Q40.85 25.63 43.59 25.06L43.61 25.08L43.69 25.16Q34.89 31.01 33.71 40.99L33.81 41.09L33.07 40.88L33.05 40.86Q32.80
40.91 32.45 40.95ZM35.39 43.35L37.42 43.52L37.57 43.66Q37.09 41.97 37.09 40.44L37.15 40.51L37.08 40.44Q37.23 37.35 38.64 34.12L38.68 34.15L38.53 34.01Q40.54 29.50 44.65 26.42L44.63 26.40L44.61 26.39Q43.40 26.65 41.53 27.00L41.69 27.15L41.56 27.02Q43.60 25.44 44.89 24.53L44.83 24.47L42.45 25.06L42.37 24.98Q41.14 25.20 39.81 25.35L39.82 25.36L39.82 25.36Q34.64 29.58 32.70 34.61L32.75 34.65L32.74 34.65Q31.98 32.37 30.61 28.11L30.72 28.22L30.72 28.21Q30.37 28.20 30.10 28.20L30.06 28.16L29.50 28.13L29.66 28.30Q29.51 27.96 28.71 26.21L28.71 26.20L26.57 26.12L26.57 26.12Q25.72 29.04 23.63 34.67L23.54 34.59L23.50 34.55Q22.17 30.86 19.09 27.59L19.20 27.70L19.12 27.62Q18.92 27.68 18.62 27.64L18.58 27.61L18.00 27.48L18.07 27.56Q17.07 26.59 15.28 24.99L15.41 25.12L15.42 25.14Q12.24 24.46 10.56 23.97L10.59 23.99L10.53 23.94Q21.23 31.36 20.85 41.68L20.80 41.63L20.89 41.72Q21.15 41.79 21.51 41.75L21.45 41.69L21.43 41.67Q21.86 41.70 22.05 41.70L22.04 41.69L22.05 41.70Q22.03 41.53 22.22 43.62L22.25 43.65L24.11 43.42L24.14 43.45Q26.69 40.59 28.93 34.84L28.93 34.84L28.96 34.87Q30.42 38.68 32.28 41.35L32.23 41.30L32.28 41.35Q32.51 41.23 32.77 41.25L32.91 41.38L32.92 41.40Q33.17 41.40 33.44 41.40L33.37 41.33L35.49 43.45Z"/><path fill="#222" d="M57.94 40.26L57.89 40.22L57.88 40.20Q56.03 40.14 54.35 40.71L54.38 40.74L54.30 40.66Q54.82 37.03 54.93 33.90L54.92 33.89L55.07 34.04Q55.10 30.92 54.88 27.26L54.87 27.26L54.85 27.24Q53.51 26.93 52.75 26.55L52.67 26.46L52.37 23.53L52.35 23.51Q53.03 24.09 54.63 24.66L54.70 24.72L54.59 24.61Q54.35 22.47 53.93 19.73L54.00 19.80L54.03 19.83Q56.21 20.41 57.85 20.26L57.94 20.35L57.81 24.94L57.74 24.88Q59.18 24.83 60.51 24.33L60.58 24.40L60.54 24.36Q60.60 25.38 60.38 27.13L60.33 27.08L60.26 27.01Q58.70 27.32 57.67 27.32L57.83 27.47L57.70 27.34Q57.79 29.60 57.79 33.86L57.69 33.77L57.66 33.74Q57.72 37.94 57.79 40.11ZM60.95
23.78L60.91 23.74L60.99 23.82Q60.63 23.84 60.02 24.07L60.16 24.21L60.42 21.31L60.51 21.40Q59.70 21.69 58.29 21.92L58.30 21.93L58.33 21.96Q58.28 21.22 58.43 19.85L58.34 19.76L58.45 19.87Q57.83 19.93 57.25 19.93L57.21 19.88L57.22 19.90Q55.15 19.96 53.51 19.23L53.48 19.20L53.47 19.19Q54.06 21.77 54.33 24.24L54.24 24.15L54.16 24.07Q53.31 23.76 51.79 22.73L51.75 22.69L51.89 22.83Q52.26 24.15 52.49 26.86L52.33 26.69L52.48 26.85Q52.81 26.95 53.99 27.37L54.14 27.51L54.12 27.50Q54.10 28.08 54.14 29.49L54.06 29.42L54.44 29.46L54.55 29.48L54.69 29.63Q54.66 30.77 54.66 31.95L54.76 32.05L54.77 32.06Q54.66 36.91 53.86 41.25L53.82 41.21L53.87 41.26Q54.12 41.20 56.06 40.66L55.99 40.60L55.94 40.55Q56.09 41.35 55.98 42.72L55.96 42.70L55.98 42.72Q56.75 42.61 57.55 42.61L57.47 42.54L57.46 42.53Q59.33 42.68 60.96 43.25L60.81 43.09L60.96
43.24Q59.61 37.51 59.80 29.59L59.72 29.52L62.08 29.10L62.09 29.11Q62.16 28.18 62.23 27.16L62.23 27.15L62.39 25.10L62.49 25.21Q61.96 25.51 60.78 25.97L60.79 25.98L60.78 25.97Q61.11 24.66 61.03 24.32L61.04 24.33L60.94 24.22Q60.83 23.92 60.90 23.73Z"/><path fill="#444" d="M85.30 29.95L85.13 29.78L85.30 29.96Q84.96 29.84 84.66 29.84L84.69 29.87L84.65 29.83Q83.40 29.92 81.96 30.76L81.89 30.70L81.86 30.66Q80.54 31.78 80.54 33.68L80.63 33.77L80.50 33.64Q80.51 37.08 82.04 38.41L82.08 38.46L82.11 38.49Q83.04 39.65 85.33 39.65L85.34 39.66L85.30 39.62Q85.54 39.63 85.84 39.63L85.96 39.75L85.87 39.66Q87.49 39.57 88.63 37.93L88.63 37.93L88.76 38.05Q89.68 36.43 89.61 34.64L89.59 34.62L89.64 34.67Q89.75 34.25 89.75 33.83L89.74 33.82L89.73 33.81Q89.71 32.01 88.34 30.84L88.34 30.84L88.38 30.88Q87.03 29.74 85.24 29.90ZM89.66 39.98L89.66 39.99L89.70 40.03Q88.63 41.88 84.90 42.00L85.04 42.14L84.91 42.01Q81.51 42.11 79.91 40.51L79.88 40.48L79.93 40.53Q78.50 38.80 77.71 34.01L77.73 34.03L77.71 34.01Q77.41 32.27 77.41 31.01L77.47 31.07L77.48 31.08Q77.37 29.18 78.10 28.11L78.21 28.23L78.08 28.10Q79.49 26.77 82.46 26.77L82.43 26.74L82.53 26.84Q88.76 26.75 90.66 29.34L90.79 29.46L90.72 29.40Q90.87 28.56 91.29 26.96L91.39 27.06L91.40 27.06Q92.59 26.69 95.02 25.89L94.97 25.84L95.10 25.97Q92.66 31.60 92.43 37.92L92.42 37.91L92.27 37.76Q92.13 44.02 94.26 49.84L94.15 49.73L94.27 49.84Q92.45 49.13 90.66 48.86L90.77 48.97L90.70 48.90Q89.85 45.01 89.74 40.06ZM90.48 49.26L90.56 49.34L90.47 49.24Q91.27 49.48 92.68 49.78L92.58 49.68L92.66 49.76Q92.74 50.34 93.31 51.74L93.35 51.78L93.41 51.85Q96.09 52.66 98.38 53.95L98.29 53.87L98.20 53.78Q94.28 47.30 94.28 38.78L94.27 38.77L94.17 38.67Q94.26 32.40 96.73 26.61L96.62 26.50L96.75 26.63Q95.97 26.84 94.60 27.49L94.66 27.54L94.67 27.56Q95.02 26.81 95.67 25.25L95.57 25.15L95.69 25.26Q94.17 25.84 90.97 26.71L90.92 26.67L90.80
26.54Q90.85 27.28 90.55 28.46L90.53 28.44L90.42 28.33Q88.43 26.46 82.30 26.31L82.27 26.28L82.35 26.36Q79.08 26.21 77.71 27.69L77.68 27.66L77.76 27.75Q77.04 28.93 77.08 30.83L76.99 30.74L77.12 30.87Q77.08 33.73 78.07 37.50L78.20 37.62L78.23 37.65Q78.85 40.03 79.77 40.98L79.71 40.92L80.06 41.27L80.16 41.37Q81.18 43.99 86.62 44.22L86.80 44.40L86.68 44.28Q87.76 44.37 89.59 44.06L89.62 44.09L89.52 44.00Q89.83 46.93
90.44 49.22ZM87.05 32.12L87.10 32.17L87.07 32.14Q88.14 32.14 88.97 32.44L89.03 32.50L89.04 32.51Q89.24 33.05 89.35 33.66L89.29 33.60L89.26 33.57Q89.51 34.27 89.43 34.88L89.31 34.76L89.28 34.73Q89.39 36.74 88.36 38.04L88.22 37.90L88.34 38.02Q87.25 39.51 85.38 39.32L85.39 39.33L85.36 39.31Q84.01 39.25 83.06 38.83L83.13 38.90L83.00 38.76Q82.72 38.03 82.72 36.81L82.70 36.79L82.68 36.77Q82.74 36.52 82.74 36.22L82.72 36.20L82.64 36.12Q82.59 34.32 83.92 33.16L84.06 33.30L84.01 33.25Q85.36 32.11 87.11 32.18Z"/><path fill="#111" d="M124.11 40.38L124.11 40.38L124.16 40.43Q121.15 36.51 118.52 27.87L118.46 27.80L118.46 27.80Q117.83 25.69 117.03 23.56L117.12 23.64L114.25 32.42L114.11 32.28Q112.42 37.33 110.02 40.56L110.03 40.58L109.87 40.41Q109.21 40.67 107.57 40.82L107.51 40.76L107.41 40.66Q107.49 39.45 107.49 38.19L107.49 38.19L107.58 38.28Q107.49 32.17 104.75 26.04L104.77 26.06L104.93 26.22Q101.81 19.34 95.95 14.35L95.78 14.18L95.87 14.27Q98.05 15.01 100.41 15.54L100.30 15.43L100.37 15.50Q109.07 23.97 110.37 34.94L110.40 34.97L110.34 34.91Q111.94 31.56 113.39 26.20L113.41 26.21L113.46 26.26Q115.36 18.68 115.85 17.28L115.82 17.24L118.23 17.41L118.21 17.38Q118.95 19.46 119.60 21.78L119.48 21.66L120.72 26.11L120.65 26.03Q122.27 31.53 123.68 34.77L123.74 34.84L123.60 34.69Q125.32 23.12 133.24 15.78L133.28 15.82L133.26 15.80Q134.76 15.43 137.73 14.78L137.75 14.81L137.69 14.75Q132.46 19.15 129.41 25.28L129.31 25.18L129.32 25.18Q126.30 31.50
126.30 38.27L126.32 38.29L126.23 38.19Q126.22 39.29 126.30 40.44L126.47 40.61L125.33 40.49L125.23 40.40Q124.61 40.31 124.04 40.31ZM130.44 43.36L130.39 43.30L130.40 43.32Q129.17 39.76 129.28 35.88L129.30 35.90L129.13 35.73Q129.52 24.24 138.88 15.98L138.94 16.04L139.02 16.12Q138.05 16.32 136.11 16.86L135.97 16.72L135.94 16.69Q137.04 16.00 138.94 14.21L138.83 14.10L138.93 14.20Q136.12 14.81 133.19 15.31L133.21 15.33L133.26 15.39Q125.73 22.47 123.83 31.95L123.83 31.95L123.83 31.95Q123.34 30.40 120.49 18.94L120.37 18.83L120.55 19.00Q120.02 18.97 119.07 18.97L118.99 18.89L118.68 17.82L118.71 17.85Q118.62 17.34 118.40 16.85L118.52 16.97L115.45 16.80L115.57 16.92Q114.69 19.31 113.42 24.43L113.52 24.53L113.36 24.37Q112.22 29.63 111.23 32.11L111.14 32.02L111.25 32.13Q109.53 24.09 103.97 17.77L104.05 17.85L103.97 17.77Q103.52 17.74 102.57 17.55L102.61 17.58L102.52 17.50Q101.98 16.84 100.42 15.20L100.35 15.14L100.27 15.06Q96.97 14.35 94.80 13.55L94.69 13.43L94.73 13.47Q100.45 18.20 103.72 24.41L103.65 24.33L103.73 24.41Q107.26 31.11 107.26 38.11L107.25 38.10L107.07 37.92Q107.08 39.49 106.89 41.09L107.06 41.26L106.90 41.10Q107.29 41.26 107.75 41.17L107.58 41.00L107.62 41.03Q108.17 41.03 108.39 41.03L108.45 41.09L108.41 42.08L108.39 42.06Q108.37 42.49 108.44 43.03L108.34 42.92L108.52 43.10Q109.61 42.98 111.90 42.82L111.82 42.75L111.86 42.78Q115.55 37.46 118.29 28.05L118.29 28.05L118.15 27.91Q120.93 36.70 123.90 40.66L123.87 40.64L124.05 40.81Q124.40 40.71 125.24 40.82L125.21 40.80L125.26 40.85Q126.21 41.99 127.28 43.05L127.26 43.03L127.24 43.02Q127.99 43.04 130.39 43.31Z"/></svg>