<?xml version="1.0" encoding="UTF-8"?>
<svg width="36px" height="36px" viewBox="0 0 36 36" version="1.1" xmlns="http://www.w3.org/2000/svg" xmlns:xlink="http://www.w3.org/1999/xlink">
    <!-- Generator: Sketch 47.1 (45422) - http://www.bohemiancoding.com/sketch -->
    <title>*图标</title>
    <desc>Created with Sketch.</desc>
    <defs></defs>
    <g id="UI-KIT" stroke="none" stroke-width="1" fill="none" fill-rule="evenodd">
        <g id="*图标" transform="translate(-978.000000, -1226.000000)">
            <g id="Group-163-Copy" transform="translate(978.000000, 1226.000000)">
                <rect id="Rectangle-2" x="0" y="0" width="36" height="36"></rect>
                <g id="Group-162" transform="translate(8.000000, 9.000000)">
                    <path d="M12,0.5 C11.7238576,0.5 11.5,0.723857625 11.5,1 L11.5,13 C11.5,13.2761424 11.7238576,13.5 12,13.5 L19,13.5 C19.2761424,13.5 19.5,13.2761424 19.5,13 L19.5,1 C19.5,0.723857625 19.2761424,0.5 19,0.5 L12,0.5 Z" id="Rectangle-7" stroke="#97A4B6"></path>
                    <path d="M1,0.5 C0.723857625,0.5 0.5,0.723857625 0.5,1 L0.5,13 C0.5,13.2761424 0.723857625,13.5 1,13.5 L8,13.5 C8.27614237,13.5 8.5,13.2761424 8.5,13 L8.5,1 C8.5,0.723857625 8.27614237,0.5 8,0.5 L1,0.5 Z" id="Rectangle-7-Copy-2" stroke="#97A4B6"></path>
                    <rect id="Rectangle-63" fill="#97A4B6" x="0" y="17" width="20" height="1" rx="0.5"></rect>
                    <rect id="Rectangle-64" fill="#97A4B6" x="4" y="13" width="1" height="4"></rect>
                    <rect id="Rectangle-64" fill="#97A4B6" x="15" y="13" width="1" height="4"></rect>
                    <rect id="Rectangle-20" fill="#97A4B6" x="4" y="10" width="1" height="1"></rect>
                    <rect id="Rectangle-20-Copy" fill="#97A4B6" x="4" y="3" width="1" height="5" rx="0.5"></rect>
                    <rect id="Rectangle-20" fill="#97A4B6" x="15" y="10" width="1" height="1"></rect>
                    <rect id="Rectangle-20-Copy" fill="#97A4B6" x="15" y="3" width="1" height="5" rx="0.5"></rect>
                </g>
            </g>
        </g>
    </g>
</svg>

